# xmcd CD database file
#
# Track frame offsets:
#	187
#	20615
#	39372
#	63092
#	81130
#	98792
#	117920
#	139205
#	159905
#	177482
#	189930
#
# Disc length: 2562 seconds
#
# Revision: 2
# Processed by: cddbd v1.5.1PL0 Copyright (c) Steve Scherf et al.
# Submitted via: CDex 1.51
#
DISCID=850a000b
DTITLE=epo - VITAMIN E・P・O
DYEAR=1991
DGENRE=Pop
TTITLE0=VITAMIN E・P・O
TTITLE1=土曜の夜はパラダイス
TTITLE2=無言のジェラシー
TTITLE3=Would You Dance With Me?
TTITLE4=あなたを奪えない
TTITLE5=う・ふ・ふ・ふ
TTITLE6=PAY DAY
TTITLE7=かなしいともだち
TTITLE8=五分遅れで見かけた人へ
TTITLE9=BYE BYE BABY
TTITLE10=う・ふ・ふ・ふ　Part?
EXTD=YEAR: 1991
EXTT0=
EXTT1=
EXTT2=
EXTT3=
EXTT4=
EXTT5=
EXTT6=
EXTT7=
EXTT8=
EXTT9=
EXTT10=
PLAYORDER=
